<?xml version="1.0" encoding="UTF-8" standalone="no"?>
<!-- Created with Inkscape (http://www.inkscape.org/) -->

<svg
   xmlns:dc="http://purl.org/dc/elements/1.1/"
   xmlns:cc="http://creativecommons.org/ns#"
   xmlns:rdf="http://www.w3.org/1999/02/22-rdf-syntax-ns#"
   xmlns:svg="http://www.w3.org/2000/svg"
   xmlns="http://www.w3.org/2000/svg"
   xmlns:sodipodi="http://sodipodi.sourceforge.net/DTD/sodipodi-0.dtd"
   xmlns:inkscape="http://www.inkscape.org/namespaces/inkscape"
   width="32in"
   height="18in"
   viewBox="0 0 812.80001 457.20001"
   version="1.1"
   id="svg8"
   inkscape:version="0.92.4 (5da689c313, 2019-01-14)"
   sodipodi:docname="Body.svg">
  <defs
     id="defs2">
    <marker
       style="overflow:visible"
       refY="0.0"
       refX="0.0"
       orient="auto"
       id="DistanceX">
      <path
         id="path3715"
         style="stroke:#000000; stroke-width:0.5"
         d="M 3,-3 L -3,3 M 0,-5 L  0,5" />
    </marker>
    <pattern
       y="0"
       x="0"
       width="8"
       patternUnits="userSpaceOnUse"
       id="Hatch"
       height="8">
      <path
         id="path3718"
         stroke-width="0.25"
         stroke="#000000"
         linecap="square"
         d="M8 4 l-4,4" />
      <path
         id="path3720"
         stroke-width="0.25"
         stroke="#000000"
         linecap="square"
         d="M6 2 l-4,4" />
      <path
         id="path3722"
         stroke-width="0.25"
         stroke="#000000"
         linecap="square"
         d="M4 0 l-4,4" />
    </pattern>
    <symbol
       id="*Model_Space" />
    <symbol
       id="*Paper_Space" />
    <symbol
       id="*Paper_Space0" />
    <marker
       style="overflow:visible"
       refY="0.0"
       refX="0.0"
       orient="auto"
       id="DistanceX-9">
      <path
         id="path4771"
         style="stroke:#000000; stroke-width:0.5"
         d="M 3,-3 L -3,3 M 0,-5 L  0,5" />
    </marker>
    <pattern
       y="0"
       x="0"
       width="8"
       patternUnits="userSpaceOnUse"
       id="Hatch-8"
       height="8">
      <path
         id="path4774"
         stroke-width="0.25"
         stroke="#000000"
         linecap="square"
         d="M8 4 l-4,4" />
      <path
         id="path4776"
         stroke-width="0.25"
         stroke="#000000"
         linecap="square"
         d="M6 2 l-4,4" />
      <path
         id="path4778"
         stroke-width="0.25"
         stroke="#000000"
         linecap="square"
         d="M4 0 l-4,4" />
    </pattern>
    <symbol
       id="*Model_Space-0" />
    <symbol
       id="*Paper_Space-8" />
    <symbol
       id="*Paper_Space0-9" />
  </defs>
  <sodipodi:namedview
     id="base"
     pagecolor="#ffffff"
     bordercolor="#666666"
     borderopacity="1.0"
     inkscape:pageopacity="0.0"
     inkscape:pageshadow="2"
     inkscape:zoom="0.5"
     inkscape:cx="1123.681"
     inkscape:cy="1047.2373"
     inkscape:document-units="mm"
     inkscape:current-layer="layer1"
     showgrid="false"
     units="in"
     inkscape:window-width="1366"
     inkscape:window-height="705"
     inkscape:window-x="-8"
     inkscape:window-y="-8"
     inkscape:window-maximized="1" />
  <metadata
     id="metadata5">
    <rdf:RDF>
      <cc:Work
         rdf:about="">
        <dc:format>image/svg+xml</dc:format>
        <dc:type
           rdf:resource="http://purl.org/dc/dcmitype/StillImage" />
        <dc:title></dc:title>
      </cc:Work>
    </rdf:RDF>
  </metadata>
  <g
     inkscape:label="Calque 1"
     inkscape:groupmode="layer"
     id="layer1"
     transform="translate(0,160.20002)">
    <g
       id="g5424"
       style="stroke:#ff0000;stroke-opacity:1;stroke-width:0.0254;stroke-miterlimit:4;stroke-dasharray:none">
      <path
         id="path4786"
         style="fill:none;stroke:#ff0000;stroke-width:0.0254;stroke-linecap:round;stroke-opacity:1;stroke-miterlimit:4;stroke-dasharray:none"
         d="m 303.51025,12.489095 a 1.45,1.45 0 1 0 -2.89999,0 1.45,1.45 0 1 0 2.89999,0 z"
         inkscape:connector-curvature="0" />
      <path
         id="path4788"
         style="fill:none;stroke:#ff0000;stroke-width:0.0254;stroke-linecap:round;stroke-opacity:1;stroke-miterlimit:4;stroke-dasharray:none"
         d="m 285.83259,-125.18856 a 1.45001,1.45001 0 1 0 -2.90002,0 1.45001,1.45001 0 1 0 2.90002,0 z"
         inkscape:connector-curvature="0" />
      <path
         id="path4790"
         style="fill:none;stroke:#ff0000;stroke-width:0.0254;stroke-linecap:round;stroke-opacity:1;stroke-miterlimit:4;stroke-dasharray:none"
         d="m 303.51025,-107.51089 a 1.45,1.45 0 1 0 -2.89999,0 1.45,1.45 0 1 0 2.89999,0 z"
         inkscape:connector-curvature="0" />
      <path
         id="path4792"
         style="fill:none;stroke:#ff0000;stroke-width:0.0254;stroke-linecap:round;stroke-opacity:1;stroke-miterlimit:4;stroke-dasharray:none"
         d="m 131.79452,-107.51089 a 1.45,1.45 0 1 0 -2.9,0 1.45,1.45 0 1 0 2.9,0 z"
         inkscape:connector-curvature="0" />
      <path
         id="path4794"
         style="fill:none;stroke:#ff0000;stroke-width:0.0254;stroke-linecap:round;stroke-opacity:1;stroke-miterlimit:4;stroke-dasharray:none"
         d="m 285.83259,30.166781 a 1.45001,1.45001 0 1 0 -2.90002,0 1.45001,1.45001 0 1 0 2.90002,0 z"
         inkscape:connector-curvature="0" />
      <path
         id="path4796"
         style="fill:none;stroke:#ff0000;stroke-width:0.0254;stroke-linecap:round;stroke-opacity:1;stroke-miterlimit:4;stroke-dasharray:none"
         d="m 149.47219,30.166781 a 1.45,1.45 0 1 0 -2.9,0 1.45,1.45 0 1 0 2.9,0 z"
         inkscape:connector-curvature="0" />
      <path
         id="path4798"
         style="fill:none;stroke:#ff0000;stroke-width:0.0254;stroke-linecap:round;stroke-opacity:1;stroke-miterlimit:4;stroke-dasharray:none"
         d="m 131.79452,12.489095 a 1.45,1.45 0 1 0 -2.9,0 1.45,1.45 0 1 0 2.9,0 z"
         inkscape:connector-curvature="0" />
      <path
         id="path4800"
         style="fill:none;stroke:#ff0000;stroke-width:0.0254;stroke-linecap:round;stroke-opacity:1;stroke-miterlimit:4;stroke-dasharray:none"
         d="m 149.47219,-125.18856 a 1.45,1.45 0 1 0 -2.9,0 1.45,1.45 0 1 0 2.9,0 z"
         inkscape:connector-curvature="0" />
      <path
         id="path4802"
         style="fill:none;stroke:#ff0000;stroke-width:0.0254;stroke-linecap:round;stroke-opacity:1;stroke-miterlimit:4;stroke-dasharray:none"
         d="M 356.20239,-40.010905 V -55.010901"
         inkscape:connector-curvature="0" />
      <path
         id="path4804"
         style="fill:none;stroke:#ff0000;stroke-width:0.0254;stroke-linecap:round;stroke-opacity:1;stroke-miterlimit:4;stroke-dasharray:none"
         d="m 356.20239,-55.010901 h 29.99999"
         inkscape:connector-curvature="0" />
      <path
         id="path4806"
         style="fill:none;stroke:#ff0000;stroke-width:0.0254;stroke-linecap:round;stroke-opacity:1;stroke-miterlimit:4;stroke-dasharray:none"
         d="m 386.20238,-55.010901 v 14.999996"
         inkscape:connector-curvature="0" />
      <path
         id="path4808"
         style="fill:none;stroke:#ff0000;stroke-width:0.0254;stroke-linecap:round;stroke-opacity:1;stroke-miterlimit:4;stroke-dasharray:none"
         d="M 386.20238,-40.010905 H 356.20239"
         inkscape:connector-curvature="0" />
      <path
         id="path4810"
         style="fill:none;stroke:#ff0000;stroke-width:0.0254;stroke-linecap:round;stroke-opacity:1;stroke-miterlimit:4;stroke-dasharray:none"
         d="M 66.202386,-40.010905 V -55.010901"
         inkscape:connector-curvature="0" />
      <path
         id="path4812"
         style="fill:none;stroke:#ff0000;stroke-width:0.0254;stroke-linecap:round;stroke-opacity:1;stroke-miterlimit:4;stroke-dasharray:none"
         d="m 66.202386,-55.010901 h 30"
         inkscape:connector-curvature="0" />
      <path
         id="path4814"
         style="fill:none;stroke:#ff0000;stroke-width:0.0254;stroke-linecap:round;stroke-opacity:1;stroke-miterlimit:4;stroke-dasharray:none"
         d="m 96.202386,-55.010901 v 14.999996"
         inkscape:connector-curvature="0" />
      <path
         id="path4816"
         style="fill:none;stroke:#ff0000;stroke-width:0.0254;stroke-linecap:round;stroke-opacity:1;stroke-miterlimit:4;stroke-dasharray:none"
         d="m 96.202386,-40.010905 h -30"
         inkscape:connector-curvature="0" />
      <path
         id="path4818"
         style="fill:none;stroke:#ff0000;stroke-width:0.0254;stroke-linecap:round;stroke-opacity:1;stroke-miterlimit:4;stroke-dasharray:none"
         d="m 234.20238,-9.6608951 h -50.45"
         inkscape:connector-curvature="0" />
      <path
         id="path4820"
         style="fill:none;stroke:#ff0000;stroke-width:0.0254;stroke-linecap:round;stroke-opacity:1;stroke-miterlimit:4;stroke-dasharray:none"
         d="M 183.75238,-9.6608951 V -85.350894"
         inkscape:connector-curvature="0" />
      <path
         id="path4822"
         style="fill:none;stroke:#ff0000;stroke-width:0.0254;stroke-linecap:round;stroke-opacity:1;stroke-miterlimit:4;stroke-dasharray:none"
         d="m 183.75238,-85.350894 h 50.45"
         inkscape:connector-curvature="0" />
      <path
         id="path4824"
         style="fill:none;stroke:#ff0000;stroke-width:0.0254;stroke-linecap:round;stroke-opacity:1;stroke-miterlimit:4;stroke-dasharray:none"
         d="M 234.20238,-85.350894 V -9.6608951"
         inkscape:connector-curvature="0" />
      <path
         id="path4826"
         style="fill:none;stroke:#ff0000;stroke-width:0.0254;stroke-linecap:round;stroke-opacity:1;stroke-miterlimit:4;stroke-dasharray:none"
         d="m 123.44142,-93.870892 a 1.6000002,1.6000002 0 1 0 -3.2,0 1.6000002,1.6000002 0 1 0 3.2,0 z"
         inkscape:connector-curvature="0" />
      <path
         id="path4828"
         style="fill:none;stroke:#ff0000;stroke-width:0.0254;stroke-linecap:round;stroke-opacity:1;stroke-miterlimit:4;stroke-dasharray:none"
         d="m 123.44142,-11.400901 a 1.6000002,1.6000002 0 1 0 -3.2,0 1.6000002,1.6000002 0 1 0 3.2,0 z"
         inkscape:connector-curvature="0" />
      <path
         id="path4830"
         style="fill:none;stroke:#ff0000;stroke-width:0.0254;stroke-linecap:round;stroke-opacity:1;stroke-miterlimit:4;stroke-dasharray:none"
         d="m 171.66142,-12.630896 a 1.6000002,1.6000002 0 1 0 -3.2,0 1.6000002,1.6000002 0 1 0 3.2,0 z"
         inkscape:connector-curvature="0" />
      <path
         id="path4832"
         style="fill:none;stroke:#ff0000;stroke-width:0.0254;stroke-linecap:round;stroke-opacity:1;stroke-miterlimit:4;stroke-dasharray:none"
         d="m 171.66142,-87.510894 a 1.6000002,1.6000002 0 1 0 -3.2,0 1.6000002,1.6000002 0 1 0 3.2,0 z"
         inkscape:connector-curvature="0" />
      <path
         id="path4834"
         style="fill:none;stroke:#ff0000;stroke-width:0.0254;stroke-linecap:round;stroke-opacity:1;stroke-miterlimit:4;stroke-dasharray:none"
         d="m 247.45238,-19.560889 a 1.2500001,1.2500001 0 1 0 -2.5,0 1.2500001,1.2500001 0 1 0 2.5,0 z"
         inkscape:connector-curvature="0" />
      <path
         id="path4836"
         style="fill:none;stroke:#ff0000;stroke-width:0.0254;stroke-linecap:round;stroke-opacity:1;stroke-miterlimit:4;stroke-dasharray:none"
         d="m 266.25238,-19.560889 a 1.2500001,1.2500001 0 1 0 -2.5,0 1.2500001,1.2500001 0 1 0 2.5,0 z"
         inkscape:connector-curvature="0" />
      <path
         id="path4838"
         style="fill:none;stroke:#ff0000;stroke-width:0.0254;stroke-linecap:round;stroke-opacity:1;stroke-miterlimit:4;stroke-dasharray:none"
         d="m 266.25238,-75.460891 a 1.2500001,1.2500001 0 1 0 -2.5,0 1.2500001,1.2500001 0 1 0 2.5,0 z"
         inkscape:connector-curvature="0" />
      <path
         id="path4840"
         style="fill:none;stroke:#ff0000;stroke-width:0.0254;stroke-linecap:round;stroke-opacity:1;stroke-miterlimit:4;stroke-dasharray:none"
         d="m 247.45238,-75.460891 a 1.2500001,1.2500001 0 1 0 -2.5,0 1.2500001,1.2500001 0 1 0 2.5,0 z"
         inkscape:connector-curvature="0" />
      <path
         id="path4842"
         style="fill:none;stroke:#ff0000;stroke-width:0.0254;stroke-linecap:round;stroke-opacity:1;stroke-miterlimit:4;stroke-dasharray:none"
         d="m 286.84237,-74.030897 a 1.45,1.45 0 1 0 -2.89999,0 1.45,1.45 0 1 0 2.89999,0 z"
         inkscape:connector-curvature="0" />
      <path
         id="path4844"
         style="fill:none;stroke:#ff0000;stroke-width:0.0254;stroke-linecap:round;stroke-opacity:1;stroke-miterlimit:4;stroke-dasharray:none"
         d="m 323.47237,-74.030897 a 1.45,1.45 0 1 0 -2.89999,0 1.45,1.45 0 1 0 2.89999,0 z"
         inkscape:connector-curvature="0" />
      <path
         id="path4846"
         style="fill:none;stroke:#ff0000;stroke-width:0.0254;stroke-linecap:round;stroke-opacity:1;stroke-miterlimit:4;stroke-dasharray:none"
         d="m 323.47237,-21.200882 a 1.45,1.45 0 1 0 -2.89999,0 1.45,1.45 0 1 0 2.89999,0 z"
         inkscape:connector-curvature="0" />
      <path
         id="path4848"
         style="fill:none;stroke:#ff0000;stroke-width:0.0254;stroke-linecap:round;stroke-opacity:1;stroke-miterlimit:4;stroke-dasharray:none"
         d="m 286.84237,-21.200882 a 1.45,1.45 0 1 0 -2.89999,0 1.45,1.45 0 1 0 2.89999,0 z"
         inkscape:connector-curvature="0" />
      <path
         id="path4850"
         style="fill:none;stroke:#ff0000;stroke-width:0.0254;stroke-linecap:round;stroke-opacity:1;stroke-miterlimit:4;stroke-dasharray:none"
         d="m 280.57738,-66.510883 a 1.375,1.375 0 1 0 -2.75,0 1.375,1.375 0 1 0 2.75,0 z"
         inkscape:connector-curvature="0" />
      <path
         id="path4852"
         style="fill:none;stroke:#ff0000;stroke-width:0.0254;stroke-linecap:round;stroke-opacity:1;stroke-miterlimit:4;stroke-dasharray:none"
         d="m 329.57737,-66.510883 a 1.375,1.375 0 1 0 -2.75,0 1.375,1.375 0 1 0 2.75,0 z"
         inkscape:connector-curvature="0" />
      <path
         id="path4854"
         style="fill:none;stroke:#ff0000;stroke-width:0.0254;stroke-linecap:round;stroke-opacity:1;stroke-miterlimit:4;stroke-dasharray:none"
         d="m 329.57737,-8.5108836 a 1.375,1.375 0 1 0 -2.75,0 1.375,1.375 0 1 0 2.75,0 z"
         inkscape:connector-curvature="0" />
      <path
         id="path4856"
         style="fill:none;stroke:#ff0000;stroke-width:0.0254;stroke-linecap:round;stroke-opacity:1;stroke-miterlimit:4;stroke-dasharray:none"
         d="m 280.57738,-8.5108836 a 1.375,1.375 0 1 0 -2.75,0 1.375,1.375 0 1 0 2.75,0 z"
         inkscape:connector-curvature="0" />
      <path
         id="path4858"
         style="fill:none;stroke:#ff0000;stroke-width:0.0254;stroke-linecap:round;stroke-opacity:1;stroke-miterlimit:4;stroke-dasharray:none"
         d="m 193.90238,-152.59089 a 1.45,1.45 0 1 0 -2.9,0 1.45,1.45 0 1 0 2.9,0 z"
         inkscape:connector-curvature="0" />
      <path
         id="path4860"
         style="fill:none;stroke:#ff0000;stroke-width:0.0254;stroke-linecap:round;stroke-opacity:1;stroke-miterlimit:4;stroke-dasharray:none"
         d="m 241.40238,-152.59089 a 1.45,1.45 0 1 0 -2.9,0 1.45,1.45 0 1 0 2.9,0 z"
         inkscape:connector-curvature="0" />
      <path
         id="path4862"
         style="fill:none;stroke:#ff0000;stroke-width:0.0254;stroke-linecap:round;stroke-opacity:1;stroke-miterlimit:4;stroke-dasharray:none"
         d="m 241.40238,-142.43089 a 1.45,1.45 0 1 0 -2.9,0 1.45,1.45 0 1 0 2.9,0 z"
         inkscape:connector-curvature="0" />
      <path
         id="path4864"
         style="fill:none;stroke:#ff0000;stroke-width:0.0254;stroke-linecap:round;stroke-opacity:1;stroke-miterlimit:4;stroke-dasharray:none"
         d="m 193.90238,-142.43089 a 1.45,1.45 0 1 0 -2.9,0 1.45,1.45 0 1 0 2.9,0 z"
         inkscape:connector-curvature="0" />
      <path
         id="path4866"
         style="fill:none;stroke:#ff0000;stroke-width:0.0254;stroke-linecap:round;stroke-opacity:1;stroke-miterlimit:4;stroke-dasharray:none"
         d="m 343.90239,-102.59089 a 1.45,1.45 0 1 0 -2.9,0 1.45,1.45 0 1 0 2.9,0 z"
         inkscape:connector-curvature="0" />
      <path
         id="path4868"
         style="fill:none;stroke:#ff0000;stroke-width:0.0254;stroke-linecap:round;stroke-opacity:1;stroke-miterlimit:4;stroke-dasharray:none"
         d="m 391.40237,-102.59089 a 1.45,1.45 0 1 0 -2.89999,0 1.45,1.45 0 1 0 2.89999,0 z"
         inkscape:connector-curvature="0" />
      <path
         id="path4870"
         style="fill:none;stroke:#ff0000;stroke-width:0.0254;stroke-linecap:round;stroke-opacity:1;stroke-miterlimit:4;stroke-dasharray:none"
         d="m 391.40237,-92.430892 a 1.45,1.45 0 1 0 -2.89999,0 1.45,1.45 0 1 0 2.89999,0 z"
         inkscape:connector-curvature="0" />
      <path
         id="path4872"
         style="fill:none;stroke:#ff0000;stroke-width:0.0254;stroke-linecap:round;stroke-opacity:1;stroke-miterlimit:4;stroke-dasharray:none"
         d="m 343.90239,-92.430892 a 1.45,1.45 0 1 0 -2.9,0 1.45,1.45 0 1 0 2.9,0 z"
         inkscape:connector-curvature="0" />
      <path
         id="path4874"
         style="fill:none;stroke:#ff0000;stroke-width:0.0254;stroke-linecap:round;stroke-opacity:1;stroke-miterlimit:4;stroke-dasharray:none"
         d="m 212.71238,-126.60089 a 1.45,1.45 0 1 0 -2.9,0 1.45,1.45 0 1 0 2.9,0 z"
         inkscape:connector-curvature="0" />
      <path
         id="path4876"
         style="fill:none;stroke:#ff0000;stroke-width:0.0254;stroke-linecap:round;stroke-opacity:1;stroke-miterlimit:4;stroke-dasharray:none"
         d="m 352.71238,-76.600901 a 1.45,1.45 0 1 0 -2.9,0 1.45,1.45 0 1 0 2.9,0 z"
         inkscape:connector-curvature="0" />
      <path
         id="path4878"
         style="fill:none;stroke:#ff0000;stroke-width:0.0254;stroke-linecap:round;stroke-opacity:1;stroke-miterlimit:4;stroke-dasharray:none"
         d="m 362.71238,-76.600901 a 1.45,1.45 0 1 0 -2.89999,0 1.45,1.45 0 1 0 2.89999,0 z"
         inkscape:connector-curvature="0" />
      <path
         id="path4880"
         style="fill:none;stroke:#ff0000;stroke-width:0.0254;stroke-linecap:round;stroke-opacity:1;stroke-miterlimit:4;stroke-dasharray:none"
         d="m 202.71238,-126.60089 a 1.45,1.45 0 1 0 -2.9,0 1.45,1.45 0 1 0 2.9,0 z"
         inkscape:connector-curvature="0" />
      <path
         id="path4882"
         style="fill:none;stroke:#ff0000;stroke-width:0.0254;stroke-linecap:round;stroke-opacity:1;stroke-miterlimit:4;stroke-dasharray:none"
         d="m 91.402384,-102.59089 a 1.45,1.45 0 1 0 -2.9,0 1.45,1.45 0 1 0 2.9,0 z"
         inkscape:connector-curvature="0" />
      <path
         id="path4884"
         style="fill:none;stroke:#ff0000;stroke-width:0.0254;stroke-linecap:round;stroke-opacity:1;stroke-miterlimit:4;stroke-dasharray:none"
         d="m 91.402384,-92.430892 a 1.45,1.45 0 1 0 -2.9,0 1.45,1.45 0 1 0 2.9,0 z"
         inkscape:connector-curvature="0" />
      <path
         id="path4886"
         style="fill:none;stroke:#ff0000;stroke-width:0.0254;stroke-linecap:round;stroke-opacity:1;stroke-miterlimit:4;stroke-dasharray:none"
         d="m 43.902385,-92.430892 a 1.45,1.45 0 1 0 -2.899999,0 1.45,1.45 0 1 0 2.899999,0 z"
         inkscape:connector-curvature="0" />
      <path
         id="path4888"
         style="fill:none;stroke:#ff0000;stroke-width:0.0254;stroke-linecap:round;stroke-opacity:1;stroke-miterlimit:4;stroke-dasharray:none"
         d="m 52.712385,-76.600901 a 1.45,1.45 0 1 0 -2.9,0 1.45,1.45 0 1 0 2.9,0 z"
         inkscape:connector-curvature="0" />
      <path
         id="path4890"
         style="fill:none;stroke:#ff0000;stroke-width:0.0254;stroke-linecap:round;stroke-opacity:1;stroke-miterlimit:4;stroke-dasharray:none"
         d="m 62.712386,-76.600901 a 1.45,1.45 0 1 0 -2.9,0 1.45,1.45 0 1 0 2.9,0 z"
         inkscape:connector-curvature="0" />
      <path
         id="path4892"
         style="fill:none;stroke:#ff0000;stroke-width:0.0254;stroke-linecap:round;stroke-opacity:1;stroke-miterlimit:4;stroke-dasharray:none"
         d="m 43.902385,-102.59089 a 1.45,1.45 0 1 0 -2.899999,0 1.45,1.45 0 1 0 2.899999,0 z"
         inkscape:connector-curvature="0" />
      <path
         id="path4894"
         style="fill:none;stroke:#ff0000;stroke-width:0.0254;stroke-linecap:round;stroke-opacity:1;stroke-miterlimit:4;stroke-dasharray:none"
         d="m 193.90238,57.569094 a 1.45,1.45 0 1 0 -2.9,0 1.45,1.45 0 1 0 2.9,0 z"
         inkscape:connector-curvature="0" />
      <path
         id="path4896"
         style="fill:none;stroke:#ff0000;stroke-width:0.0254;stroke-linecap:round;stroke-opacity:1;stroke-miterlimit:4;stroke-dasharray:none"
         d="m 241.40238,57.569094 a 1.45,1.45 0 1 0 -2.9,0 1.45,1.45 0 1 0 2.9,0 z"
         inkscape:connector-curvature="0" />
      <path
         id="path4898"
         style="fill:none;stroke:#ff0000;stroke-width:0.0254;stroke-linecap:round;stroke-opacity:1;stroke-miterlimit:4;stroke-dasharray:none"
         d="m 241.40238,47.409094 a 1.45,1.45 0 1 0 -2.9,0 1.45,1.45 0 1 0 2.9,0 z"
         inkscape:connector-curvature="0" />
      <path
         id="path4900"
         style="fill:none;stroke:#ff0000;stroke-width:0.0254;stroke-linecap:round;stroke-opacity:1;stroke-miterlimit:4;stroke-dasharray:none"
         d="m 193.90238,47.409094 a 1.45,1.45 0 1 0 -2.9,0 1.45,1.45 0 1 0 2.9,0 z"
         inkscape:connector-curvature="0" />
      <path
         id="path4902"
         style="fill:none;stroke:#ff0000;stroke-width:0.0254;stroke-linecap:round;stroke-opacity:1;stroke-miterlimit:4;stroke-dasharray:none"
         d="m 343.90239,7.5691154 a 1.45,1.45 0 1 0 -2.9,0 1.45,1.45 0 1 0 2.9,0 z"
         inkscape:connector-curvature="0" />
      <path
         id="path4904"
         style="fill:none;stroke:#ff0000;stroke-width:0.0254;stroke-linecap:round;stroke-opacity:1;stroke-miterlimit:4;stroke-dasharray:none"
         d="m 391.40237,7.5691154 a 1.45,1.45 0 1 0 -2.89999,0 1.45,1.45 0 1 0 2.89999,0 z"
         inkscape:connector-curvature="0" />
      <path
         id="path4906"
         style="fill:none;stroke:#ff0000;stroke-width:0.0254;stroke-linecap:round;stroke-opacity:1;stroke-miterlimit:4;stroke-dasharray:none"
         d="m 391.40237,-2.5908845 a 1.45,1.45 0 1 0 -2.89999,0 1.45,1.45 0 1 0 2.89999,0 z"
         inkscape:connector-curvature="0" />
      <path
         id="path4908"
         style="fill:none;stroke:#ff0000;stroke-width:0.0254;stroke-linecap:round;stroke-opacity:1;stroke-miterlimit:4;stroke-dasharray:none"
         d="m 343.90239,-2.5908845 a 1.45,1.45 0 1 0 -2.9,0 1.45,1.45 0 1 0 2.9,0 z"
         inkscape:connector-curvature="0" />
      <path
         id="path4910"
         style="fill:none;stroke:#ff0000;stroke-width:0.0254;stroke-linecap:round;stroke-opacity:1;stroke-miterlimit:4;stroke-dasharray:none"
         d="m 212.71238,31.5791 a 1.45,1.45 0 1 0 -2.9,0 1.45,1.45 0 1 0 2.9,0 z"
         inkscape:connector-curvature="0" />
      <path
         id="path4912"
         style="fill:none;stroke:#ff0000;stroke-width:0.0254;stroke-linecap:round;stroke-opacity:1;stroke-miterlimit:4;stroke-dasharray:none"
         d="m 352.71238,-18.420905 a 1.45,1.45 0 1 0 -2.9,0 1.45,1.45 0 1 0 2.9,0 z"
         inkscape:connector-curvature="0" />
      <path
         id="path4914"
         style="fill:none;stroke:#ff0000;stroke-width:0.0254;stroke-linecap:round;stroke-opacity:1;stroke-miterlimit:4;stroke-dasharray:none"
         d="m 362.71238,-18.420905 a 1.45,1.45 0 1 0 -2.89999,0 1.45,1.45 0 1 0 2.89999,0 z"
         inkscape:connector-curvature="0" />
      <path
         id="path4916"
         style="fill:none;stroke:#ff0000;stroke-width:0.0254;stroke-linecap:round;stroke-opacity:1;stroke-miterlimit:4;stroke-dasharray:none"
         d="m 202.71238,31.5791 a 1.45,1.45 0 1 0 -2.9,0 1.45,1.45 0 1 0 2.9,0 z"
         inkscape:connector-curvature="0" />
      <path
         id="path4918"
         style="fill:none;stroke:#ff0000;stroke-width:0.0254;stroke-linecap:round;stroke-opacity:1;stroke-miterlimit:4;stroke-dasharray:none"
         d="m 91.402384,7.5691154 a 1.45,1.45 0 1 0 -2.9,0 1.45,1.45 0 1 0 2.9,0 z"
         inkscape:connector-curvature="0" />
      <path
         id="path4920"
         style="fill:none;stroke:#ff0000;stroke-width:0.0254;stroke-linecap:round;stroke-opacity:1;stroke-miterlimit:4;stroke-dasharray:none"
         d="m 91.402384,-2.5908845 a 1.45,1.45 0 1 0 -2.9,0 1.45,1.45 0 1 0 2.9,0 z"
         inkscape:connector-curvature="0" />
      <path
         id="path4922"
         style="fill:none;stroke:#ff0000;stroke-width:0.0254;stroke-linecap:round;stroke-opacity:1;stroke-miterlimit:4;stroke-dasharray:none"
         d="m 43.902385,-2.5908845 a 1.45,1.45 0 1 0 -2.899999,0 1.45,1.45 0 1 0 2.899999,0 z"
         inkscape:connector-curvature="0" />
      <path
         id="path4924"
         style="fill:none;stroke:#ff0000;stroke-width:0.0254;stroke-linecap:round;stroke-opacity:1;stroke-miterlimit:4;stroke-dasharray:none"
         d="m 52.712385,-18.420905 a 1.45,1.45 0 1 0 -2.9,0 1.45,1.45 0 1 0 2.9,0 z"
         inkscape:connector-curvature="0" />
      <path
         id="path4926"
         style="fill:none;stroke:#ff0000;stroke-width:0.0254;stroke-linecap:round;stroke-opacity:1;stroke-miterlimit:4;stroke-dasharray:none"
         d="m 62.712386,-18.420905 a 1.45,1.45 0 1 0 -2.9,0 1.45,1.45 0 1 0 2.9,0 z"
         inkscape:connector-curvature="0" />
      <path
         id="path4928"
         style="fill:none;stroke:#ff0000;stroke-width:0.0254;stroke-linecap:round;stroke-opacity:1;stroke-miterlimit:4;stroke-dasharray:none"
         d="m 43.902385,7.5691154 a 1.45,1.45 0 1 0 -2.899999,0 1.45,1.45 0 1 0 2.899999,0 z"
         inkscape:connector-curvature="0" />
      <path
         id="path4930"
         style="fill:none;stroke:#ff0000;stroke-width:0.0254;stroke-linecap:round;stroke-opacity:1;stroke-miterlimit:4;stroke-dasharray:none"
         d="M 119.92213,16.208846 162.48264,58.76935"
         inkscape:connector-curvature="0" />
      <path
         id="path4932"
         style="fill:none;stroke:#ff0000;stroke-width:0.0254;stroke-linecap:round;stroke-opacity:1;stroke-miterlimit:4;stroke-dasharray:none"
         d="m 162.48264,58.76935 a 12.7,12.7 0 0 0 8.98026,3.71975"
         inkscape:connector-curvature="0" />
      <path
         id="path4934"
         style="fill:none;stroke:#ff0000;stroke-width:0.0254;stroke-linecap:round;stroke-opacity:1;stroke-miterlimit:4;stroke-dasharray:none"
         d="m 171.4629,62.4891 h 24.73948"
         inkscape:connector-curvature="0" />
      <path
         id="path4936"
         style="fill:none;stroke:#ff0000;stroke-width:0.0254;stroke-linecap:round;stroke-opacity:1;stroke-miterlimit:4;stroke-dasharray:none"
         d="M 196.20238,42.489114 V 62.4891"
         inkscape:connector-curvature="0" />
      <path
         id="path4938"
         style="fill:none;stroke:#ff0000;stroke-width:0.0254;stroke-linecap:round;stroke-opacity:1;stroke-miterlimit:4;stroke-dasharray:none"
         d="m 236.20238,42.489114 h -40"
         inkscape:connector-curvature="0" />
      <path
         id="path4940"
         style="fill:none;stroke:#ff0000;stroke-width:0.0254;stroke-linecap:round;stroke-opacity:1;stroke-miterlimit:4;stroke-dasharray:none"
         d="M 236.20238,62.4891 V 42.489114"
         inkscape:connector-curvature="0" />
      <path
         id="path4942"
         style="fill:none;stroke:#ff0000;stroke-width:0.0254;stroke-linecap:round;stroke-opacity:1;stroke-miterlimit:4;stroke-dasharray:none"
         d="m 236.20238,62.4891 h 24.73949"
         inkscape:connector-curvature="0" />
      <path
         id="path4944"
         style="fill:none;stroke:#ff0000;stroke-width:0.0254;stroke-linecap:round;stroke-opacity:1;stroke-miterlimit:4;stroke-dasharray:none"
         d="m 260.94187,62.4891 a 12.7,12.7 0 0 0 8.98026,-3.71975"
         inkscape:connector-curvature="0" />
      <path
         id="path4946"
         style="fill:none;stroke:#ff0000;stroke-width:0.0254;stroke-linecap:round;stroke-opacity:1;stroke-miterlimit:4;stroke-dasharray:none"
         d="M 269.92213,58.76935 312.48264,16.208846"
         inkscape:connector-curvature="0" />
      <path
         id="path4948"
         style="fill:none;stroke:#ff0000;stroke-width:0.0254;stroke-linecap:round;stroke-opacity:1;stroke-miterlimit:4;stroke-dasharray:none"
         d="m 321.46289,12.489095 a 12.7,12.7 0 0 0 -8.98025,3.719751"
         inkscape:connector-curvature="0" />
      <path
         id="path4950"
         style="fill:none;stroke:#ff0000;stroke-width:0.0254;stroke-linecap:round;stroke-opacity:1;stroke-miterlimit:4;stroke-dasharray:none"
         d="m 321.46289,12.489095 h 24.73949"
         inkscape:connector-curvature="0" />
      <path
         id="path4952"
         style="fill:none;stroke:#ff0000;stroke-width:0.0254;stroke-linecap:round;stroke-opacity:1;stroke-miterlimit:4;stroke-dasharray:none"
         d="M 346.20238,-7.5108909 V 12.489095"
         inkscape:connector-curvature="0" />
      <path
         id="path4954"
         style="fill:none;stroke:#ff0000;stroke-width:0.0254;stroke-linecap:round;stroke-opacity:1;stroke-miterlimit:4;stroke-dasharray:none"
         d="m 386.20238,-7.5108909 h -40"
         inkscape:connector-curvature="0" />
      <path
         id="path4956"
         style="fill:none;stroke:#ff0000;stroke-width:0.0254;stroke-linecap:round;stroke-opacity:1;stroke-miterlimit:4;stroke-dasharray:none"
         d="M 386.20238,12.489095 V -7.5108909"
         inkscape:connector-curvature="0" />
      <path
         id="path4958"
         style="fill:none;stroke:#ff0000;stroke-width:0.0254;stroke-linecap:round;stroke-opacity:1;stroke-miterlimit:4;stroke-dasharray:none"
         d="m 386.20238,12.489095 h 23.64999"
         inkscape:connector-curvature="0" />
      <path
         id="path4960"
         style="fill:none;stroke:#ff0000;stroke-width:0.0254;stroke-linecap:round;stroke-opacity:1;stroke-miterlimit:4;stroke-dasharray:none"
         d="m 409.85237,12.489095 a 6.3499999,6.3499999 0 0 0 6.35,-6.3499996"
         inkscape:connector-curvature="0" />
      <path
         id="path4962"
         style="fill:none;stroke:#ff0000;stroke-width:0.0254;stroke-linecap:round;stroke-opacity:1;stroke-miterlimit:4;stroke-dasharray:none"
         d="M 416.20237,6.1390954 V -101.16089"
         inkscape:connector-curvature="0" />
      <path
         id="path4964"
         style="fill:none;stroke:#ff0000;stroke-width:0.0254;stroke-linecap:round;stroke-opacity:1;stroke-miterlimit:4;stroke-dasharray:none"
         d="m 416.20237,-101.16089 a 6.3499999,6.3499999 0 0 0 -6.35,-6.35"
         inkscape:connector-curvature="0" />
      <path
         id="path4966"
         style="fill:none;stroke:#ff0000;stroke-width:0.0254;stroke-linecap:round;stroke-opacity:1;stroke-miterlimit:4;stroke-dasharray:none"
         d="m 386.20238,-107.51089 h 23.64999"
         inkscape:connector-curvature="0" />
      <path
         id="path4968"
         style="fill:none;stroke:#ff0000;stroke-width:0.0254;stroke-linecap:round;stroke-opacity:1;stroke-miterlimit:4;stroke-dasharray:none"
         d="m 386.20238,-107.51089 v 19.999996"
         inkscape:connector-curvature="0" />
      <path
         id="path4970"
         style="fill:none;stroke:#ff0000;stroke-width:0.0254;stroke-linecap:round;stroke-opacity:1;stroke-miterlimit:4;stroke-dasharray:none"
         d="m 386.20238,-87.510894 h -40"
         inkscape:connector-curvature="0" />
      <path
         id="path4972"
         style="fill:none;stroke:#ff0000;stroke-width:0.0254;stroke-linecap:round;stroke-opacity:1;stroke-miterlimit:4;stroke-dasharray:none"
         d="M 346.20238,-87.510894 V -107.51089"
         inkscape:connector-curvature="0" />
      <path
         id="path4974"
         style="fill:none;stroke:#ff0000;stroke-width:0.0254;stroke-linecap:round;stroke-opacity:1;stroke-miterlimit:4;stroke-dasharray:none"
         d="m 321.46289,-107.51089 h 24.73949"
         inkscape:connector-curvature="0" />
      <path
         id="path4976"
         style="fill:none;stroke:#ff0000;stroke-width:0.0254;stroke-linecap:round;stroke-opacity:1;stroke-miterlimit:4;stroke-dasharray:none"
         d="m 312.48264,-111.23064 a 12.7,12.7 0 0 0 8.98025,3.71975"
         inkscape:connector-curvature="0" />
      <path
         id="path4978"
         style="fill:none;stroke:#ff0000;stroke-width:0.0254;stroke-linecap:round;stroke-opacity:1;stroke-miterlimit:4;stroke-dasharray:none"
         d="m 269.92213,-153.79115 42.56051,42.56051"
         inkscape:connector-curvature="0" />
      <path
         id="path4980"
         style="fill:none;stroke:#ff0000;stroke-width:0.0254;stroke-linecap:round;stroke-opacity:1;stroke-miterlimit:4;stroke-dasharray:none"
         d="m 269.92213,-153.79115 a 12.7,12.7 0 0 0 -8.98026,-3.71974"
         inkscape:connector-curvature="0" />
      <path
         id="path4982"
         style="fill:none;stroke:#ff0000;stroke-width:0.0254;stroke-linecap:round;stroke-opacity:1;stroke-miterlimit:4;stroke-dasharray:none"
         d="m 236.20238,-157.51089 h 24.73949"
         inkscape:connector-curvature="0" />
      <path
         id="path4984"
         style="fill:none;stroke:#ff0000;stroke-width:0.0254;stroke-linecap:round;stroke-opacity:1;stroke-miterlimit:4;stroke-dasharray:none"
         d="m 236.20238,-157.51089 v 20"
         inkscape:connector-curvature="0" />
      <path
         id="path4986"
         style="fill:none;stroke:#ff0000;stroke-width:0.0254;stroke-linecap:round;stroke-opacity:1;stroke-miterlimit:4;stroke-dasharray:none"
         d="m 236.20238,-137.51089 h -40"
         inkscape:connector-curvature="0" />
      <path
         id="path4988"
         style="fill:none;stroke:#ff0000;stroke-width:0.0254;stroke-linecap:round;stroke-opacity:1;stroke-miterlimit:4;stroke-dasharray:none"
         d="m 196.20238,-137.51089 v -20"
         inkscape:connector-curvature="0" />
      <path
         id="path4990"
         style="fill:none;stroke:#ff0000;stroke-width:0.0254;stroke-linecap:round;stroke-opacity:1;stroke-miterlimit:4;stroke-dasharray:none"
         d="m 171.4629,-157.51089 h 24.73948"
         inkscape:connector-curvature="0" />
      <path
         id="path4992"
         style="fill:none;stroke:#ff0000;stroke-width:0.0254;stroke-linecap:round;stroke-opacity:1;stroke-miterlimit:4;stroke-dasharray:none"
         d="m 171.4629,-157.51089 a 12.7,12.7 0 0 0 -8.98026,3.71974"
         inkscape:connector-curvature="0" />
      <path
         id="path4994"
         style="fill:none;stroke:#ff0000;stroke-width:0.0254;stroke-linecap:round;stroke-opacity:1;stroke-miterlimit:4;stroke-dasharray:none"
         d="m 119.92213,-111.23064 42.56051,-42.56051"
         inkscape:connector-curvature="0" />
      <path
         id="path4996"
         style="fill:none;stroke:#ff0000;stroke-width:0.0254;stroke-linecap:round;stroke-opacity:1;stroke-miterlimit:4;stroke-dasharray:none"
         d="m 110.94187,-107.51089 a 12.7,12.7 0 0 0 8.98026,-3.71975"
         inkscape:connector-curvature="0" />
      <path
         id="path4998"
         style="fill:none;stroke:#ff0000;stroke-width:0.0254;stroke-linecap:round;stroke-opacity:1;stroke-miterlimit:4;stroke-dasharray:none"
         d="M 86.202385,-107.51089 H 110.94187"
         inkscape:connector-curvature="0" />
      <path
         id="path5000"
         style="fill:none;stroke:#ff0000;stroke-width:0.0254;stroke-linecap:round;stroke-opacity:1;stroke-miterlimit:4;stroke-dasharray:none"
         d="m 86.202385,-107.51089 v 19.999996"
         inkscape:connector-curvature="0" />
      <path
         id="path5002"
         style="fill:none;stroke:#ff0000;stroke-width:0.0254;stroke-linecap:round;stroke-opacity:1;stroke-miterlimit:4;stroke-dasharray:none"
         d="M 86.202385,-87.510894 H 46.202386"
         inkscape:connector-curvature="0" />
      <path
         id="path5004"
         style="fill:none;stroke:#ff0000;stroke-width:0.0254;stroke-linecap:round;stroke-opacity:1;stroke-miterlimit:4;stroke-dasharray:none"
         d="M 46.202386,-87.510894 V -107.51089"
         inkscape:connector-curvature="0" />
      <path
         id="path5006"
         style="fill:none;stroke:#ff0000;stroke-width:0.0254;stroke-linecap:round;stroke-opacity:1;stroke-miterlimit:4;stroke-dasharray:none"
         d="m 22.552386,-107.51089 h 23.65"
         inkscape:connector-curvature="0" />
      <path
         id="path5008"
         style="fill:none;stroke:#ff0000;stroke-width:0.0254;stroke-linecap:round;stroke-opacity:1;stroke-miterlimit:4;stroke-dasharray:none"
         d="m 22.552386,-107.51089 a 6.3499999,6.3499999 0 0 0 -6.35,6.35"
         inkscape:connector-curvature="0" />
      <path
         id="path5010"
         style="fill:none;stroke:#ff0000;stroke-width:0.0254;stroke-linecap:round;stroke-opacity:1;stroke-miterlimit:4;stroke-dasharray:none"
         d="M 16.202386,-101.16089 V 6.1390954"
         inkscape:connector-curvature="0" />
      <path
         id="path5012"
         style="fill:none;stroke:#ff0000;stroke-width:0.0254;stroke-linecap:round;stroke-opacity:1;stroke-miterlimit:4;stroke-dasharray:none"
         d="m 16.202386,6.1390954 a 6.3499999,6.3499999 0 0 0 6.35,6.3499996"
         inkscape:connector-curvature="0" />
      <path
         id="path5014"
         style="fill:none;stroke:#ff0000;stroke-width:0.0254;stroke-linecap:round;stroke-opacity:1;stroke-miterlimit:4;stroke-dasharray:none"
         d="m 22.552386,12.489095 h 23.65"
         inkscape:connector-curvature="0" />
      <path
         id="path5016"
         style="fill:none;stroke:#ff0000;stroke-width:0.0254;stroke-linecap:round;stroke-opacity:1;stroke-miterlimit:4;stroke-dasharray:none"
         d="M 46.202386,-7.5108909 V 12.489095"
         inkscape:connector-curvature="0" />
      <path
         id="path5018"
         style="fill:none;stroke:#ff0000;stroke-width:0.0254;stroke-linecap:round;stroke-opacity:1;stroke-miterlimit:4;stroke-dasharray:none"
         d="M 86.202385,-7.5108909 H 46.202386"
         inkscape:connector-curvature="0" />
      <path
         id="path5020"
         style="fill:none;stroke:#ff0000;stroke-width:0.0254;stroke-linecap:round;stroke-opacity:1;stroke-miterlimit:4;stroke-dasharray:none"
         d="M 86.202385,12.489095 V -7.5108909"
         inkscape:connector-curvature="0" />
      <path
         id="path5022"
         style="fill:none;stroke:#ff0000;stroke-width:0.0254;stroke-linecap:round;stroke-opacity:1;stroke-miterlimit:4;stroke-dasharray:none"
         d="M 86.202385,12.489095 H 110.94187"
         inkscape:connector-curvature="0" />
      <path
         id="path5024"
         style="fill:none;stroke:#ff0000;stroke-width:0.0254;stroke-linecap:round;stroke-opacity:1;stroke-miterlimit:4;stroke-dasharray:none"
         d="m 119.92213,16.208846 a 12.7,12.7 0 0 0 -8.98026,-3.719751"
         inkscape:connector-curvature="0" />
    </g>
  </g>
</svg>
